Simulation
nRows=19
nColumns=15
endheader
time  TH_x TH_y TH_z SC_y  SC_z  SC_x  AC_y  AC_z  AC_x  GH_y  GH_z  GH_yy  EL_x  PS_y
0.0  0.000000  0.000000  0.000000  -21.409430378105114  2.5228782848401146  -5.92994011019946  56.00472762254115  14.672246902120635  5.415769700948628  36.69654219586494  16.242124700118058  -2.0797805279901698  50.857635342069294  120.000000
0.040225563909774435  0.000000  0.000000  0.000000  -20.336545577563843  2.949233269044142  -5.280912745675741  55.76048100988409  14.036121893452759  5.463463895006464  36.622251083391  15.805452137419227  -0.5765049816760913  51.49498735451941  120.000000
0.08045112781954887  0.000000  0.000000  0.000000  -19.4645680353344  3.205361974851047  -4.827786214060374  55.550635055308284  13.286639166450703  5.374930425487026  36.40103901319718  15.197150355095337  0.9726953748618528  52.03156761433629  120.000000
0.1206766917293233  0.000000  0.000000  0.000000  -18.823552076937364  3.333331542140627  -4.49547895101677  55.39313128880155  12.53491418441433  5.214794044956309  36.05221767699085  14.509432778421669  2.455550181173847  52.50496311733605  120.000000
0.16090225563909774  0.000000  0.000000  0.000000  -18.41848501737272  3.350707760717603  -4.23094000211636  55.29917501671395  11.865021972679875  5.002320018465724  35.66503763593988  13.85220779757679  3.6287056124454637  52.9042850891981  120.000000
0.20112781954887218  0.000000  0.000000  0.000000  -18.21534338186486  3.307183168076429  -3.9912914066254923  55.26502136503856  11.328674396592486  4.768380143688564  35.30998353725786  13.320302094751716  4.314688874585806  53.2273722347958  120.000000
0.2413533834586466  0.000000  0.000000  0.000000  -18.164169627835765  3.2454132309931594  -3.7500351843972504  55.2674929916612  10.941746917921487  4.538915631472442  35.00277510042621  12.986567613284254  4.431722505258092  53.47998337138635  120.000000
0.28157894736842104  0.000000  0.000000  0.000000  -18.21550893558519  3.1926090264750595  -3.498697632333327  55.28419365810974  10.697801115630808  4.325216361726547  34.75022184805736  12.897711712628  3.934392136525162  53.660156388839894  120.000000
0.3218045112781955  0.000000  0.000000  0.000000  -18.324874774623872  3.1642363424766504  -3.239868965498673  55.29243937116078  10.577502521611693  4.136038418715784  34.50790518200442  13.071330493136362  2.867899755631279  53.77050550468918  120.000000
0.3620300751879699  0.000000  0.000000  0.000000  -18.45866651568117  3.1671704004559804  -2.981372993226289  55.27720730060013  10.560238609672455  3.9734390981271726  34.22263595167556  13.502279623098469  1.3105001310188804  53.815504684491934  120.000000
0.40225563909774437  0.000000  0.000000  0.000000  -18.596692380284846  3.2011609460684327  -2.7307667285423434  55.228168186924435  10.626965680008011  3.838705906026242  33.83759097119914  14.168430927801612  -0.6367025670677483  53.8005548156141  120.000000
0.4424812030075188  0.000000  0.000000  0.000000  -18.72947173156494  3.262573491426175  -2.4947145233201664  55.14207075960523  10.763897522448424  3.729994407774383  33.318972327416716  15.039746934280384  -2.8871378481212875  53.73177488342305  120.000000
0.4827067669172932  0.000000  0.000000  0.000000  -18.85500494052093  3.347071536452493  -2.2769575454499478  55.019552582879946  10.961474645854944  3.64594652634482  32.652430269595314  16.081926341011382  -5.367793251170528  53.61525661610964  120.000000
0.5229323308270677  0.000000  0.000000  0.000000  -18.974848914190613  3.449268302957738  -2.079165512937286  54.863142032547174  11.212973201216704  3.584229048488548  31.839702921951545  17.261256918890908  -8.021657331094943  53.45708218865672  120.000000
0.5631578947368421  0.000000  0.000000  0.000000  -19.09226554155504  3.563728978725055  -1.9004595555596722  54.677217183396  11.513794225185016  3.542259986982643  30.894995035251885  18.54593560158663  -10.805497452464447  53.262350081696425  120.000000
0.6033834586466166  0.000000  0.000000  0.000000  -19.209414189241908  3.6852126276025885  -1.738957169037224  54.465727243750685  11.858985136438353  3.5173271204324488  29.836084241847043  19.90755392844988  -13.682634786394921  53.03623919291759  120.000000
0.643609022556391  0.000000  0.000000  0.000000  -19.327470262944896  3.8087820465487106  -1.5916654380379407  54.232945152689034  12.243691475463628  3.506484429589147  28.684259629567872  21.32024544935722  -16.6223919897751  52.7834953855264  120.000000
0.6838345864661654  0.000000  0.000000  0.000000  -19.445729778416254  3.9302574509740125  -1.456008981414463  53.98216019465387  12.661714662440875  3.5072279020313486  27.45974910178395  22.760647272036046  -19.594630849396665  52.508962158368824  120.000000
0.7240601503759398  0.000000  0.000000  0.000000  -19.562615888321066  4.046019858852121  -1.3294588850046687  53.71665986271999  13.106394885545662  3.5170454099923347  26.184025975364346  24.20664408953498  -22.57121654015722  52.21749338370701  120.000000
